PathFileType	4	(x/y/z)	S06_PSF_T08
DataRate	CameraRate	NumFrames	NumMarkers	Units	OrigDataRate	OrigDataStartFrame	OrigNumFrames
240	240	9	51	mm	240	1	407
Frame#	Time	Sternum			R.Acromium			L.Acromium			Top.Head			R.ASIS			L.ASIS			R.PSIS			L.PSIS			R.Great.Tro			L.Great.Tro			R.Iliac.Crest			L.Iliac.Crest			V.Sacral			R.Thigh.Upper.Post			R.Thigh.Lower.Ant			R.Thigh.Lower.Post			R.Thigh.Upper.Ant			R.Knee.Lat			R.Knee.Med			R.Shank.Upper.Post			R.Shank.Lower.Ant			R.Shank.Lower.Post			R.Shank.Upper.Ant			R.Ankle.Lat			R.Ankle.Med			R.Heel.Upper			R.Heel.Med			R.Heel.Lat			R.Toe.Lat			R.Toe.Med			R.Toe.Tip			L.Thigh.Upper.Post			L.Thigh.Lower.Ant			L.Thigh.Lower.Post			L.Thigh.Upper.Ant			L.Knee.Lat			L.Knee.Med			L.Shank.Upper.Post			L.Shank.Lower.Ant			L.Shank.Lower.Post			L.Shank.Upper.Ant			L.Ankle.Lat			L.Ankle.Med			L.Heel.Upper			L.Heel.Med			L.Heel.Lat			L.Toe.Lat			L.Toe.Med			L.Toe.Tip			Cervical.Spine			Back			
		X1	Y1	Z1	X2	Y2	Z2	X3	Y3	Z3	X4	Y4	Z4	X5	Y5	Z5	X6	Y6	Z6	X7	Y7	Z7	X8	Y8	Z8	X9	Y9	Z9	X10	Y10	Z10	X11	Y11	Z11	X12	Y12	Z12	X13	Y13	Z13	X14	Y14	Z14	X15	Y15	Z15	X16	Y16	Z16	X17	Y17	Z17	X18	Y18	Z18	X19	Y19	Z19	X20	Y20	Z20	X21	Y21	Z21	X22	Y22	Z22	X23	Y23	Z23	X24	Y24	Z24	X25	Y25	Z25	X26	Y26	Z26	X27	Y27	Z27	X28	Y28	Z28	X29	Y29	Z29	X30	Y30	Z30	X31	Y31	Z31	X32	Y32	Z32	X33	Y33	Z33	X34	Y34	Z34	X35	Y35	Z35	X36	Y36	Z36	X37	Y37	Z37	X38	Y38	Z38	X39	Y39	Z39	X40	Y40	Z40	X41	Y41	Z41	X42	Y42	Z42	X43	Y43	Z43	X44	Y44	Z44	X45	Y45	Z45	X46	Y46	Z46	X47	Y47	Z47	X48	Y48	Z48	X49	Y49	Z49	X50	Y50	Z50	X51	Y51	Z51	

1	0	NaN	NaN	NaN	-1571.2	1488.7	506.5	-1603.4	1492.2	155.68	-1553.2	1806.5	327.87	NaN	NaN	NaN	NaN	NaN	NaN	-1702.7	1067.7	365.28	-1707.7	1070.2	285.49	-1576.8	977.01	512.84	-1593.5	970.14	152.54	-1594.7	1125.5	492.72	-1576.5	1118.8	171.59	-1719.1	1035.2	329.98	-1634.6	737.36	489.62	-1588.9	647.22	450.99	-1676.1	659.24	467.32	NaN	NaN	NaN	-1677.1	542.04	448.37	-1679	555.1	317.93	-1790.9	338.97	439.11	-1746.9	261.67	409.45	-1821.9	268.11	418.26	-1729.7	328.02	429	-1841.4	138.13	389.42	-1827.8	146.42	304.54	-1916.5	107.95	341.63	-1910.9	73.303	313.17	-1914.1	77.55	377.24	-1738.5	46.154	419.89	-1713.3	45.09	298.91	-1645.6	51.074	345.36	-1457.8	730.45	171.3	NaN	NaN	NaN	-1454.4	641.13	189.63	-1405.3	760.82	211.8	-1436.7	551.44	209.9	NaN	NaN	NaN	-1400.6	323.83	219.1	-1318.6	289.5	210.85	-1378.9	255.8	233.97	-1351.6	358.11	199.18	-1277.5	137.75	224.4	-1267	167.2	314.22	NaN	NaN	NaN	-1299.2	45.89	310.64	-1301.7	41.826	249.45	-1145.6	120.61	198.42	NaN	NaN	NaN	-1074.9	190.35	253.56	-1646.1	1545.7	335.91	-1703.2	1273.7	337.96
2	0.0041667	NaN	NaN	NaN	-1566.5	1488.1	506.19	-1598.8	1491.7	155.34	-1548.6	1806	327.67	NaN	NaN	NaN	NaN	NaN	NaN	-1697.8	1067.2	365.02	-1702.8	1069.6	285.27	-1572	976.7	512.62	-1588.2	969.28	152.59	-1590.1	1125.2	492.47	-1571.5	1118.1	171.32	-1714.2	1034.6	329.78	-1629.8	737.07	489.57	-1584.1	646.9	451.13	-1670.5	658.74	467.55	NaN	NaN	NaN	-1673.1	541.78	448.71	-1674.2	554.66	318.08	-1787.9	339.53	439.33	-1744.6	262.04	409.55	-1819.4	268.99	418.51	-1726.9	328.09	429.06	-1840.6	139.25	389.56	-1826.9	147.5	304.68	-1915.8	109.69	341.86	-1910.5	75.091	313.31	-1913.5	79.195	377.38	-1738.3	46.177	419.92	-1713.1	45.202	298.87	-1645.4	50.992	345.34	-1452.9	729.72	171.42	-1386.4	666.56	234.6	-1449.7	640.49	189.85	-1400.4	760.07	211.94	-1431.8	550.78	210.09	NaN	NaN	NaN	-1397	322.95	219.53	-1315.5	288.12	211.48	-1376	254.78	234.45	-1345.9	356.08	200.25	-1275.3	136.13	225.22	-1265	165.58	314.96	NaN	NaN	NaN	-1298.3	44.976	311.27	-1300.4	40.971	250.07	-1143.3	118.01	199.97	-1123.4	144.14	313.68	-1072.5	187.3	255.46	-1641.4	1545.2	335.6	-1698.5	1273.2	337.66
3	0.0083333	NaN	NaN	NaN	-1561.7	1487.6	505.86	-1594	1491.1	154.98	-1543.9	1805.5	327.45	NaN	NaN	NaN	NaN	NaN	NaN	-1692.6	1066.7	364.76	-1697.6	1069	285.03	-1566.9	976.4	512.39	-1582.8	968.4	152.63	-1585.2	1124.9	492.21	-1566.2	1117.4	171.04	-1709.1	1034.1	329.57	-1624.7	736.78	489.5	-1579.1	646.57	451.3	-1664.7	658.23	467.77	NaN	NaN	NaN	-1668.9	541.49	449.05	-1669	554.2	318.24	-1784.8	340.12	439.56	-1742.4	262.42	409.64	-1816.8	269.91	418.77	-1723.9	328.18	429.14	-1839.7	140.46	389.7	-1825.9	148.63	304.84	-1915	111.54	342.09	-1910	76.998	313.45	-1913	80.949	377.52	-1738.1	46.2	419.95	-1712.9	45.32	298.83	-1645.2	50.905	345.32	-1447.7	728.97	171.55	-1381.3	665.99	234.8	-1444.7	639.84	190.09	-1395.3	759.31	212.07	-1426.7	550.1	210.28	NaN	NaN	NaN	-1393.3	322.04	219.97	-1312.3	286.7	212.15	-1372.9	253.71	234.96	-1340.2	354.04	201.32	-1273	134.47	226.07	-1263	163.9	315.72	NaN	NaN	NaN	-1297.4	44.068	311.91	-1299	40.146	250.68	-1140.9	115.32	201.55	-1121.7	141.32	315.12	-1070	184.11	257.42	-1636.5	1544.7	335.28	-1693.6	1272.6	337.34
4	0.0125	NaN	NaN	NaN	-1556.6	1487	505.52	-1589	1490.6	154.6	-1539	1805.1	327.23	NaN	NaN	NaN	NaN	NaN	NaN	-1687.3	1066.1	364.49	-1692.3	1068.4	284.79	-1561.7	976.1	512.15	-1577.3	967.52	152.68	-1580.2	1124.6	491.93	-1560.8	1116.6	170.75	-1703.8	1033.6	329.36	-1619.5	736.47	489.44	-1573.9	646.23	451.49	-1658.7	657.71	467.97	NaN	NaN	NaN	-1664.4	541.2	449.4	-1663.7	553.71	318.42	-1781.5	340.75	439.8	-1740.2	262.79	409.73	-1814.1	270.9	419.05	-1720.7	328.29	429.23	-1838.8	141.75	389.84	-1824.8	149.84	305	-1914.1	113.5	342.32	-1909.4	79.025	313.58	-1912.3	82.813	377.65	-1737.8	46.225	419.97	-1712.6	45.444	298.79	-1645	50.814	345.31	-1442.4	728.2	171.68	-1376.1	665.4	234.99	-1439.5	639.18	190.34	-1390	758.52	212.18	-1421.4	549.39	210.48	NaN	NaN	NaN	-1389.5	321.1	220.43	-1308.9	285.22	212.84	-1369.8	252.6	235.5	-1334.5	352.02	202.37	-1270.6	132.8	226.95	-1260.9	162.17	316.51	NaN	NaN	NaN	-1296.6	43.184	312.53	-1297.6	39.372	251.29	-1138.5	112.55	203.16	-1119.9	138.37	316.59	-1067.4	180.77	259.42	-1631.5	1544.1	334.93	-1688.6	1272.1	337.02
5	0.016667	NaN	NaN	NaN	-1551.5	1486.4	505.15	-1583.9	1490.1	154.2	-1533.9	1804.6	327	NaN	NaN	NaN	NaN	NaN	NaN	-1681.8	1065.6	364.23	-1686.8	1067.7	284.55	-1556.4	975.8	511.9	-1571.6	966.63	152.72	-1574.9	1124.3	491.65	-1555.2	1115.9	170.45	-1698.3	1033	329.14	-1614.1	736.16	489.38	-1568.4	645.89	451.7	-1652.5	657.2	468.16	NaN	NaN	NaN	-1659.7	540.89	449.74	-1658.1	553.2	318.61	-1778.1	341.4	440.05	-1738.1	263.15	409.83	-1811.2	271.93	419.34	-1717.4	328.44	429.33	-1837.8	143.13	389.99	-1823.7	151.11	305.18	-1913.2	115.58	342.55	-1908.8	81.175	313.71	-1911.7	84.789	377.79	-1737.6	46.251	420	-1712.3	45.575	298.76	-1644.8	50.718	345.3	-1437	727.44	171.81	-1370.8	664.78	235.17	-1434.3	638.51	190.61	-1384.6	757.74	212.27	-1416.1	548.67	210.68	NaN	NaN	NaN	-1385.7	320.15	220.91	-1305.5	283.71	213.57	-1366.6	251.47	236.05	-1328.9	350.05	203.39	-1268.2	131.11	227.83	-1258.8	160.4	317.31	NaN	NaN	NaN	-1295.7	42.34	313.14	-1296.3	38.669	251.88	-1136.1	109.72	204.76	-1118.1	135.31	318.07	-1064.8	177.31	261.43	-1626.3	1543.6	334.57	-1683.4	1271.5	336.68
6	0.020833	NaN	NaN	NaN	-1546.2	1485.9	504.77	-1578.6	1489.6	153.79	-1528.7	1804.2	326.76	NaN	NaN	NaN	NaN	NaN	NaN	-1676.2	1065.1	363.96	-1681.1	1067.1	284.3	-1550.9	975.53	511.65	-1565.8	965.75	152.75	-1569.5	1123.9	491.36	-1549.5	1115.2	170.15	-1692.6	1032.5	328.93	-1608.5	735.85	489.32	-1562.8	645.55	451.95	-1646.3	656.68	468.33	NaN	NaN	NaN	-1654.7	540.56	450.08	-1652.3	552.67	318.83	-1774.5	342.09	440.32	-1736.1	263.49	409.92	-1808.1	273.02	419.64	-1713.9	328.61	429.46	-1836.7	144.59	390.14	-1822.4	152.45	305.37	-1912.2	117.77	342.79	-1908.1	83.45	313.84	-1911	86.879	377.91	-1737.3	46.279	420.02	-1712.1	45.713	298.74	-1644.6	50.619	345.29	-1431.4	726.68	171.95	-1365.2	664.15	235.35	-1428.9	637.85	190.88	-1378.9	756.95	212.33	-1410.7	547.93	210.89	NaN	NaN	NaN	-1381.8	319.19	221.4	-1302	282.18	214.31	-1363.3	250.32	236.61	-1323.4	348.15	204.37	-1265.8	129.44	228.72	-1256.7	158.61	318.12	-1317.1	60.769	280.92	-1294.9	41.55	313.73	-1295	38.052	252.44	-1133.7	106.86	206.35	-1116.3	132.15	319.56	-1062.2	173.73	263.44	-1621	1543.1	334.2	-1678	1271	336.33
7	0.025	NaN	NaN	NaN	-1540.8	1485.4	504.37	-1573.3	1489.1	153.36	-1523.5	1803.7	326.52	NaN	NaN	NaN	NaN	NaN	NaN	-1670.4	1064.6	363.69	-1675.4	1066.5	284.05	-1545.3	975.26	511.39	-1559.9	964.89	152.78	-1563.9	1123.6	491.07	-1543.7	1114.5	169.83	-1686.9	1031.9	328.72	-1602.8	735.54	489.26	-1557.1	645.2	452.23	-1639.9	656.17	468.48	NaN	NaN	NaN	-1649.5	540.23	450.41	-1646.3	552.12	319.06	-1770.8	342.8	440.59	-1734.2	263.81	410.01	-1804.9	274.16	419.96	-1710.3	328.82	429.61	-1835.6	146.13	390.3	-1821	153.86	305.58	-1911.1	120.09	343.03	-1907.4	85.855	313.96	-1910.2	89.087	378.03	-1737	46.312	420.03	-1711.8	45.86	298.71	-1644.4	50.517	345.29	-1425.8	725.93	172.08	-1359.6	663.51	235.5	-1423.4	637.19	191.17	-1373.2	756.16	212.37	-1405.2	547.19	211.09	NaN	NaN	NaN	-1377.9	318.23	221.89	-1298.5	280.64	215.07	-1360	249.17	237.19	-1318.2	346.35	205.28	-1263.4	127.79	229.61	-1254.5	156.8	318.93	-1315.7	60.78	281.28	-1294	40.826	314.29	-1293.7	37.532	252.98	-1131.3	103.99	207.9	-1114.5	128.91	321.03	-1059.6	170.06	265.43	-1615.7	1542.6	333.8	-1672.6	1270.4	335.97
8	0.029167	NaN	NaN	NaN	-1535.3	1484.8	503.95	-1567.9	1488.6	152.91	-1518.1	1803.3	326.28	NaN	NaN	NaN	NaN	NaN	NaN	-1664.6	1064.1	363.42	-1669.5	1065.9	283.79	-1539.6	975.01	511.12	-1554	964.06	152.79	-1558.2	1123.3	490.77	-1537.8	1113.8	169.51	-1681	1031.4	328.51	-1597	735.23	489.2	-1551.2	644.86	452.55	-1633.4	655.65	468.63	NaN	NaN	NaN	-1644	539.87	450.75	-1640.2	551.55	319.32	-1767	343.56	440.87	-1732.5	264.09	410.09	-1801.5	275.36	420.3	-1706.5	329.06	429.78	-1834.4	147.77	390.46	-1819.5	155.34	305.81	-1909.9	122.52	343.26	-1906.5	88.396	314.07	-1909.3	91.419	378.14	-1736.7	46.35	420.05	-1711.5	46.016	298.7	-1644.2	50.412	345.28	-1420.1	725.19	172.22	-1353.9	662.84	235.64	-1417.9	636.54	191.47	-1367.4	755.37	212.37	-1399.8	546.45	211.3	NaN	NaN	NaN	-1374	317.27	222.38	-1294.9	279.11	215.84	-1356.6	248.02	237.76	-1313.2	344.66	206.14	-1261	126.18	230.49	-1252.3	155.01	319.74	-1314.2	60.812	281.66	-1293.2	40.178	314.81	-1292.5	37.118	253.48	-1128.9	101.11	209.4	-1112.7	125.62	322.47	-1057	166.3	267.37	-1610.3	1542.2	333.39	-1667	1269.9	335.6
9	0.033333	NaN	NaN	NaN	-1529.8	1484.4	503.51	-1562.5	1488.2	152.46	-1512.7	1802.9	326.03	NaN	NaN	NaN	NaN	NaN	NaN	-1658.7	1063.7	363.16	-1663.6	1065.3	283.54	-1533.8	974.78	510.84	-1548.1	963.26	152.79	-1552.4	1123	490.47	-1531.8	1113.2	169.18	-1675.1	1030.9	328.3	-1591.1	734.92	489.15	-1545.2	644.52	452.9	-1626.9	655.14	468.75	NaN	NaN	NaN	-1638.2	539.5	451.08	-1633.8	550.95	319.61	-1763	344.34	441.17	-1731	264.34	410.16	-1797.9	276.62	420.64	-1702.5	329.34	429.98	-1833	149.48	390.64	-1817.9	156.89	306.06	-1908.6	125.09	343.5	-1905.6	91.079	314.17	-1908.4	93.88	378.25	-1736.4	46.394	420.05	-1711.2	46.183	298.69	-1644	50.307	345.29	-1414.3	724.46	172.35	-1348.2	662.17	235.75	-1412.4	635.9	191.77	-1361.5	754.59	212.34	-1394.4	545.71	211.5	NaN	NaN	NaN	-1370.1	316.33	222.86	-1291.2	277.6	216.63	-1353.2	246.88	238.33	-1308.4	343.09	206.94	-1258.6	124.61	231.35	-1250.2	153.22	320.55	-1312.6	60.868	282.05	-1292.4	39.614	315.31	-1291.3	36.814	253.95	-1126.6	98.246	210.84	-1110.9	122.27	323.86	-1054.4	162.47	269.26	-1604.8	1541.7	332.96	-1661.4	1269.4	335.22
